# xmcd
#
# Track frame offsets:
#	150
#	16757
#	30044
#	44179
#	56473
#	73964
#	96418
#	116195
#	133450
#	148287
#	163827
#	175438
#	193562
#	216347
#	234985
#	261275
#	276357
#	295348
#	314175
#	331156
#
# Disc length: 4490 seconds
#
# Revision: 1
# Processed by: cddbd v1.5.1PL0 Copyright (c) Steve Scherf et al.
# Submitted via: audiograbber 1.83.01
#
DISCID=4c118814
DTITLE=Various Artist - Songs for Blaze, a Friend of Ours
DYEAR=1900
DGENRE=
TTITLE0=Mandy Mercier - Poison Man
TTITLE1=Elliot Rogers - A Song for Blaze
TTITLE2=Townes Van Zandt - Blaze's Blue
TTITLE3=Michele Murphy - Friend of Mine
TTITLE4=Richard Dobson - Foley
TTITLE5=Mandy Mercier - Love is a Comet
TTITLE6=Robin Carty - Walk Me Away
TTITLE7=Sheri Frushay - Sittin in the Right Chair
TTITLE8=George Ensle - The Troubadour
TTITLE9=Carlene Jones - Another Song for Blaze
TTITLE10=Olin Murrell - For a Rainy Day
TTITLE11=Pat Mears - Making Up For Lost Time
TTITLE12=Brian Robbins - Blaze Foley
TTITLE13=Patricia Belen - End of the Bottle
TTITLE14=John Casner - Straight to the Heart
TTITLE15=Lucinda Williams - Drunken Angel
TTITLE16=Justin Hess - Silver Lapels
TTITLE17=Steve Hopkins - Owed to Blaze Foley
TTITLE18=Kimmie Rhodes - Our Father's Face
TTITLE19=Jubal Clark - Blaze A Blaze
EXTD=
EXTT0=
EXTT1=
EXTT2=
EXTT3=
EXTT4=
EXTT5=
EXTT6=
EXTT7=
EXTT8=
EXTT9=
EXTT10=
EXTT11=
EXTT12=
EXTT13=
EXTT14=
EXTT15=
EXTT16=
EXTT17=
EXTT18=
EXTT19=
PLAYORDER=
